<?xml version="1.0" standalone="no"?>
<!DOCTYPE svg PUBLIC "-//W3C//DTD SVG 20010904//EN"
 "http://www.w3.org/TR/2001/REC-SVG-20010904/DTD/svg10.dtd">
<svg version="1.0" xmlns="http://www.w3.org/2000/svg"
 width="1280.000000pt" height="964.000000pt" viewBox="0 0 1280.000000 964.000000"
 preserveAspectRatio="xMidYMid meet">
<metadata>
Created by potrace 1.15, written by Peter Selinger 2001-2017
</metadata>
<g transform="translate(0.000000,964.000000) scale(0.100000,-0.100000)"
fill="#000000" stroke="none">
<path d="M12161 9625 c-94 -27 -150 -66 -305 -213 -83 -79 -182 -167 -221
-194 -99 -71 -282 -157 -475 -223 -91 -31 -188 -70 -217 -86 -47 -27 -262
-176 -725 -503 -87 -61 -178 -124 -204 -141 -239 -156 -350 -233 -414 -285
-41 -34 -118 -93 -170 -132 -52 -39 -120 -92 -150 -118 -30 -26 -136 -104
-235 -175 -99 -70 -211 -153 -249 -184 -39 -31 -132 -103 -207 -161 -448 -343
-527 -416 -619 -569 -64 -107 -99 -165 -124 -205 l-18 -29 -232 6 c-127 4
-379 16 -561 27 -633 39 -2012 56 -2510 31 -532 -27 -635 -32 -890 -52 -148
-11 -355 -29 -460 -40 -862 -89 -982 -96 -1215 -65 -151 20 -278 18 -375 -8
-33 -9 -112 -42 -175 -75 -154 -78 -377 -158 -422 -152 -31 4 -373 -70 -513
-111 -165 -48 -295 -107 -383 -172 -71 -52 -92 -90 -92 -160 0 -57 30 -93 146
-178 46 -33 84 -64 84 -68 0 -4 7 -178 15 -386 19 -461 29 -618 56 -827 11
-89 31 -256 44 -372 33 -282 50 -396 91 -615 103 -552 180 -842 280 -1061 30
-65 61 -145 69 -176 8 -32 30 -83 48 -113 37 -60 52 -97 62 -148 4 -17 11 -32
16 -32 5 0 9 -12 9 -26 0 -15 12 -39 31 -57 17 -18 86 -115 153 -217 194 -295
342 -475 588 -716 194 -190 245 -223 443 -287 176 -57 283 -83 575 -142 516
-103 694 -122 1900 -197 246 -16 1585 -15 1985 1 434 17 1290 110 1805 196
208 35 437 82 463 96 47 25 288 211 364 281 44 40 108 97 142 126 175 151 397
436 581 747 25 41 53 85 63 97 9 12 17 28 17 36 0 18 55 115 75 132 8 7 15 20
15 30 0 9 9 25 20 35 11 10 20 24 20 32 0 7 6 24 14 36 7 12 19 45 26 72 7 28
37 104 65 170 29 66 66 168 84 228 17 59 41 128 52 153 24 56 78 258 124 459
45 197 96 542 139 950 45 416 53 541 66 951 9 285 13 341 30 394 11 35 20 82
20 106 0 37 5 48 32 71 128 111 148 138 147 195 0 51 -49 141 -84 157 -16 7
-55 30 -85 49 -95 63 -333 160 -480 197 -195 49 -783 159 -1151 217 -95 15
-98 17 -70 75 66 135 202 275 485 494 109 84 233 185 275 224 136 123 256 222
373 306 181 132 295 225 413 339 61 58 155 141 210 185 55 43 154 124 219 179
66 56 150 124 187 151 37 28 112 88 166 133 54 46 149 123 212 170 87 66 132
109 190 182 174 219 382 383 658 517 149 72 288 166 312 212 13 24 14 151 2
151 -41 0 -186 27 -281 51 -141 37 -271 46 -349 24z m324 -74 c50 -17 122 -35
158 -41 70 -13 91 -25 60 -37 -10 -3 -38 -25 -63 -48 -59 -54 -136 -105 -292
-194 -211 -120 -334 -215 -603 -466 -139 -129 -218 -194 -442 -367 -199 -154
-459 -362 -583 -468 -74 -64 -169 -143 -210 -175 -41 -32 -145 -120 -230 -195
-143 -126 -367 -314 -919 -775 -215 -180 -360 -326 -437 -442 l-35 -53 -74 0
c-41 0 -107 4 -147 10 -40 5 -162 21 -270 35 -203 26 -254 38 -243 55 12 19
187 -2 424 -51 152 -31 187 -21 121 35 -34 28 -76 41 -165 51 -217 23 -380 47
-405 60 -40 21 -70 67 -70 108 0 52 66 142 185 253 57 53 114 104 128 113 61
41 117 86 117 93 0 4 10 8 22 8 21 0 21 0 -3 -26 -13 -15 -67 -59 -119 -99
-96 -73 -177 -152 -200 -194 -21 -40 2 -50 138 -60 67 -6 126 -12 131 -15 5
-3 41 -10 81 -16 l72 -10 77 68 c88 80 246 205 532 422 178 136 446 347 620
489 31 25 97 74 147 109 49 35 137 103 194 151 96 82 337 264 629 475 68 50
228 169 354 266 127 97 266 203 310 235 124 91 395 317 448 373 26 28 47 57
47 65 0 20 76 136 118 180 21 21 55 48 77 59 22 11 44 27 48 34 15 27 167 18
272 -15z m-425 -25 c0 -3 -4 -8 -10 -11 -5 -3 -10 -1 -10 4 0 6 5 11 10 11 6
0 10 -2 10 -4z m720 -80 c0 -5 -149 -129 -167 -140 -8 -4 -13 -2 -13 6 0 13
36 42 135 110 41 29 45 31 45 24z m-275 -185 c-17 -16 -81 -46 -165 -78 -29
-11 26 25 94 61 76 40 101 46 71 17z m-1025 -335 c0 -3 -4 -8 -10 -11 -5 -3
-10 -1 -10 4 0 6 5 11 10 11 6 0 10 -2 10 -4z m-480 -64 c0 -4 -29 -27 -65
-51 -36 -25 -80 -58 -98 -74 -17 -16 -57 -46 -87 -68 -30 -21 -102 -72 -160
-113 -91 -65 -227 -157 -524 -355 -102 -68 -99 -66 -266 -191 -85 -63 -168
-123 -183 -133 -83 -52 8 40 102 103 29 19 71 51 95 70 23 19 81 60 129 90 48
30 125 84 170 119 45 35 170 122 277 194 192 128 391 269 520 367 61 47 90 60
90 42z m890 -21 c0 -5 -21 -37 -47 -70 -27 -33 -56 -72 -66 -86 -21 -29 -35
-32 -44 -9 -4 11 19 40 73 95 43 43 80 79 81 79 2 0 3 -4 3 -9z m-575 -46
c-16 -13 -34 -24 -40 -24 -5 0 4 11 20 24 17 14 35 25 40 25 6 0 -3 -11 -20
-25z m-133 -107 c-7 -7 -12 -8 -12 -2 0 14 12 26 19 19 2 -3 -1 -11 -7 -17z
m-87 -67 c-29 -25 -241 -183 -375 -278 -85 -61 -240 -176 -345 -256 -177 -137
-223 -165 -213 -134 8 21 196 163 518 389 80 56 171 121 202 145 83 63 201
143 213 143 6 0 6 -3 0 -9z m-879 -598 c-10 -10 -19 5 -10 18 6 11 8 11 12 0
2 -7 1 -15 -2 -18z m-158 -176 c-77 -68 -119 -101 -188 -147 -36 -24 -94 -68
-130 -99 -129 -112 -150 -126 -150 -102 0 9 165 151 176 151 8 0 60 41 127
101 64 58 199 151 206 143 3 -3 -15 -24 -41 -47z m-523 -33 c-27 -22 -118 -86
-152 -107 -7 -5 -13 -4 -13 2 0 6 17 22 38 36 20 14 61 43 91 65 58 42 87 45
36 4z m-240 -174 c-26 -29 -177 -141 -182 -136 -12 11 49 73 116 117 74 49
100 57 66 19z m-225 -174 c0 -9 -103 -86 -114 -86 -17 1 81 90 98 90 9 0 16
-2 16 -4z m483 -10 c-18 -31 -239 -204 -248 -194 -10 10 34 55 127 128 94 75
140 100 121 66z m-623 -95 c0 -7 -85 -76 -243 -198 -23 -18 -48 -33 -56 -33
-23 0 36 56 109 105 36 24 90 64 120 89 54 46 70 54 70 37z m334 -136 c-55
-44 -74 -56 -74 -47 0 18 79 77 89 66 3 -2 -4 -11 -15 -19z m-99 -75 c-3 -5
-13 -10 -21 -10 -8 0 -12 5 -9 10 3 6 13 10 21 10 8 0 12 -4 9 -10z m-584 -60
c-13 -11 -30 -20 -39 -20 -13 0 -12 3 3 20 10 11 28 20 39 20 20 -1 20 -1 -3
-20z m463 -34 c-16 -12 -74 -57 -129 -101 -124 -100 -165 -129 -165 -117 0 12
96 97 163 144 18 12 59 44 92 71 36 28 61 43 64 36 2 -7 -9 -22 -25 -33z
m-549 -246 c3 -5 -1 -10 -9 -10 -9 0 -16 5 -16 10 0 6 4 10 9 10 6 0 13 -4 16
-10z m160 -33 c10 -8 15 -19 11 -25 -12 -20 -41 -14 -66 13 l-23 25 29 0 c17
0 38 -6 49 -13z m524 -256 c-35 -43 -83 -104 -106 -135 -63 -83 -103 -73 -45
12 47 70 198 220 209 208 3 -3 -23 -41 -58 -85z m-2749 -121 c549 -24 932 -44
1115 -60 61 -6 173 -15 250 -20 160 -12 626 -61 900 -95 282 -34 1026 -162
1320 -226 297 -64 617 -160 733 -218 62 -31 91 -63 118 -126 14 -34 13 -39 -6
-69 -11 -19 -20 -41 -20 -49 0 -22 -31 -37 -73 -37 -35 0 -60 -16 -130 -82
-36 -35 -47 -35 -47 0 0 25 12 37 94 91 76 50 97 69 106 97 24 71 -12 123
-118 172 -40 18 -57 21 -65 13 -6 -6 -14 -62 -18 -124 -7 -123 -14 -149 -37
-145 -13 3 -15 26 -16 145 -1 119 -4 145 -18 159 -9 9 -24 14 -32 11 -14 -5
-16 -31 -17 -179 0 -281 -18 -383 -55 -333 -13 17 -15 60 -12 272 2 192 0 255
-9 264 -32 32 -38 -7 -44 -264 -3 -139 -9 -258 -13 -265 -4 -7 -18 -12 -31
-12 l-25 0 3 274 c1 209 -1 278 -10 287 -28 28 -34 -11 -43 -263 -9 -270 -15
-302 -53 -296 l-22 3 4 291 c3 219 1 293 -8 299 -7 4 -15 4 -19 0 -4 -3 -12
-130 -19 -280 -6 -151 -14 -279 -18 -285 -3 -5 -22 -10 -40 -10 -47 0 -50 18
-36 219 13 196 15 391 2 391 -12 0 -21 -37 -21 -90 0 -25 -7 -150 -17 -277
l-17 -233 -33 0 c-44 0 -49 25 -35 175 20 197 10 566 -11 415 -4 -25 -11 -148
-17 -275 -6 -126 -13 -249 -17 -272 -5 -42 -6 -43 -43 -43 -24 0 -40 5 -43 15
-3 7 -1 146 5 307 11 270 9 342 -9 324 -4 -4 -10 -86 -14 -184 -9 -199 -26
-452 -31 -457 -2 -2 -27 -8 -56 -13 l-54 -10 6 77 c13 153 26 418 26 515 0 78
-3 97 -12 88 -8 -8 -16 -104 -24 -300 -16 -368 -19 -382 -98 -382 l-32 0 12
133 c16 169 29 529 20 552 -3 10 -9 16 -11 13 -3 -3 -10 -108 -15 -234 -15
-319 -27 -445 -44 -462 -8 -8 -33 -18 -56 -22 l-43 -8 7 97 c3 53 10 152 16
221 12 155 13 433 2 426 -5 -3 -12 -81 -16 -173 -4 -92 -15 -257 -25 -366 -18
-215 -19 -217 -78 -217 -43 0 -48 22 -34 147 6 54 16 177 21 273 6 96 15 213
21 259 7 60 7 87 -1 95 -13 13 -30 -8 -30 -38 0 -69 -42 -631 -50 -676 -12
-65 -22 -76 -79 -85 l-44 -7 7 108 c4 60 11 145 16 189 10 81 32 404 34 482 1
24 -3 44 -9 45 -12 4 -19 -53 -40 -347 -36 -505 -33 -484 -76 -485 -9 0 -31
-3 -48 -6 l-31 -6 0 91 c0 51 4 122 10 159 14 98 40 473 39 561 l-2 76 -8 -60
c-4 -33 -18 -179 -29 -325 -30 -375 -43 -477 -61 -495 -23 -23 -482 -79 -934
-115 -143 -11 -289 -22 -325 -25 -621 -49 -2358 -79 -3225 -56 -242 6 -473 14
-512 18 l-73 6 0 241 c0 140 -4 235 -9 226 -5 -8 -11 -116 -13 -240 l-4 -225
-28 -3 c-15 -2 -38 4 -52 13 l-24 15 0 230 c0 142 -4 231 -10 235 -7 4 -10
-53 -10 -163 0 -93 -3 -203 -6 -245 l-7 -77 -38 0 c-37 0 -38 0 -45 48 -4 26
-5 296 -1 601 4 420 2 550 -6 542 -9 -9 -14 -172 -18 -590 -4 -318 -9 -584
-13 -590 -10 -15 -51 -14 -63 2 -22 26 -24 88 -24 618 1 302 -3 549 -7 549
-14 0 -22 -258 -22 -727 l0 -443 -29 0 c-60 0 -58 -20 -65 567 -4 296 -10 545
-14 553 -4 8 -9 -236 -12 -542 -3 -360 -9 -561 -15 -567 -6 -6 -22 -7 -40 -3
l-30 8 -8 315 c-17 720 -20 799 -27 799 -12 0 -22 -619 -14 -875 l7 -238 -42
6 c-24 3 -46 8 -49 12 -4 4 -8 248 -10 543 -1 295 -5 544 -8 552 -4 12 -7 11
-17 -5 -8 -14 -12 -177 -15 -550 -2 -291 -7 -534 -12 -538 -10 -11 -283 15
-625 58 -148 19 -274 35 -278 35 -5 0 -5 26 -2 58 7 61 103 548 134 685 27
114 35 193 23 201 -19 11 -31 -28 -52 -165 -11 -74 -32 -186 -45 -249 -13 -63
-42 -202 -65 -309 -43 -205 -48 -222 -61 -199 -8 15 -2 74 24 203 8 44 25 136
37 205 12 69 32 182 46 253 32 172 32 211 -4 247 -46 46 -258 104 -269 74 -2
-7 26 -23 66 -39 75 -28 106 -56 143 -129 19 -37 20 -52 15 -171 -6 -128 -72
-549 -96 -607 -22 -58 -50 -26 -140 156 -116 237 -141 303 -207 551 -25 94
-51 177 -59 185 -28 27 -17 -64 21 -177 61 -182 135 -437 131 -453 -2 -8 -15
7 -30 37 -15 29 -35 56 -44 62 -10 6 -13 11 -5 11 15 0 7 43 -14 77 -8 12 -19
46 -25 75 -17 83 -90 332 -100 342 -13 14 -75 -18 -95 -49 -13 -20 -15 -38
-10 -90 17 -170 125 -476 223 -633 25 -40 43 -75 41 -77 -2 -3 -56 6 -119 20
-63 13 -183 37 -268 54 -84 16 -158 34 -163 39 -5 5 -13 74 -16 153 -7 166
-19 146 -21 -34 l-1 -119 -33 7 c-61 13 -62 14 -67 260 -3 123 -8 227 -12 231
-5 4 -8 -97 -8 -224 l0 -232 -53 0 c-29 0 -77 7 -105 15 l-52 16 0 189 c0 172
-7 219 -24 174 -3 -9 -6 -89 -6 -179 0 -165 -2 -176 -38 -175 -32 1 -37 21
-42 182 -6 209 -23 217 -30 13 -4 -134 -7 -150 -23 -153 -10 -2 -25 2 -33 9
-13 11 -15 37 -12 155 2 78 0 146 -5 150 -20 20 -31 -24 -36 -154 l-6 -139
-33 14 -33 13 7 110 c6 96 5 110 -9 110 -35 0 -47 -29 -47 -111 0 -43 -4 -79
-9 -79 -24 0 -51 54 -51 100 0 51 -16 75 -44 64 -9 -3 -16 -17 -16 -30 0 -27
-12 -31 -30 -9 -16 19 -29 19 -52 -2 -88 -79 125 -225 440 -302 64 -16 196
-49 292 -74 343 -88 557 -136 695 -156 77 -11 248 -36 380 -56 306 -45 896
-110 1135 -124 102 -6 289 -18 415 -26 594 -38 1825 -57 2435 -36 1372 46
1937 78 2535 146 165 18 334 36 375 40 41 3 89 10 105 16 50 15 500 77 650 90
145 12 401 7 530 -11 96 -13 293 -12 357 1 84 18 141 46 161 80 9 17 17 37 17
44 0 8 5 17 10 20 14 9 1 -103 -16 -137 -19 -37 -64 -66 -142 -94 -56 -20 -87
-24 -189 -24 -175 0 -320 17 -363 43 -64 39 -310 33 -615 -14 -121 -19 -208
-20 -263 -3 -14 5 -14 3 2 -10 18 -15 18 -16 -5 -24 -56 -22 -1060 -141 -1474
-176 -518 -43 -1489 -76 -2280 -76 -679 0 -1795 39 -2295 80 -225 19 -802 80
-950 101 -223 31 -650 106 -795 140 -71 17 -204 48 -295 69 -542 126 -799 210
-883 289 -59 54 -72 112 -37 168 23 39 50 53 205 111 206 76 437 139 761 207
207 43 241 54 329 106 150 88 265 114 461 106 71 -3 167 -11 214 -17 106 -15
268 -7 545 25 116 13 248 27 295 30 192 13 701 56 775 65 132 16 372 31 695
44 363 16 1742 19 2050 6z m-6001 -1066 c11 -11 20 -115 21 -249 0 -155 11
-415 30 -730 27 -432 159 -1223 296 -1770 59 -231 193 -588 315 -836 210 -427
361 -652 654 -973 217 -238 203 -245 -49 -23 -97 85 -169 162 -274 294 -35 45
-72 83 -82 86 -9 2 -20 18 -23 35 -3 17 -33 60 -67 99 -33 37 -63 79 -67 93
-3 14 -36 79 -73 145 -219 389 -398 834 -499 1240 -27 108 -101 515 -101 555
0 18 -7 58 -15 89 -21 84 -84 499 -95 631 -23 286 -63 1252 -53 1292 4 13 11
26 17 31 10 7 56 1 65 -9z m116 -41 c3 -10 13 -182 20 -383 22 -563 32 -686
91 -1105 56 -400 133 -803 225 -1167 62 -250 173 -549 319 -861 130 -277 215
-420 409 -687 125 -172 239 -298 418 -463 84 -77 153 -142 153 -144 0 -14
-174 105 -277 190 -168 138 -440 464 -576 692 -90 150 -216 396 -248 481 -12
32 -25 64 -29 69 -18 22 -112 264 -159 407 -95 292 -155 558 -266 1193 -57
330 -61 354 -95 760 -16 178 -47 818 -50 1023 0 19 57 15 65 -5z m360 -93 c7
-11 18 -205 35 -600 12 -295 48 -669 90 -949 28 -186 143 -805 176 -947 26
-113 128 -421 199 -599 85 -214 315 -681 394 -800 87 -131 262 -356 291 -374
31 -21 28 -14 -65 109 -153 204 -267 383 -355 560 -18 36 -47 90 -66 120 -62
104 -260 630 -333 885 -53 187 -178 841 -216 1130 -60 452 -105 1035 -105
1347 0 97 0 98 23 93 12 -2 63 -12 112 -20 126 -21 163 -33 175 -55 6 -11 17
-151 25 -312 35 -704 82 -1220 140 -1518 8 -41 17 -97 21 -125 9 -72 62 -371
75 -419 22 -88 151 -464 164 -482 14 -18 14 -18 15 6 0 14 -9 68 -20 120 -61
285 -93 505 -71 484 6 -6 16 -37 21 -70 5 -33 25 -116 44 -184 19 -69 53 -192
76 -275 52 -189 147 -485 259 -805 55 -155 197 -454 231 -485 21 -19 12 10
-85 270 -29 79 -155 492 -155 510 0 3 4 4 9 1 5 -4 12 -25 16 -49 4 -23 13
-53 20 -67 7 -14 42 -111 79 -216 101 -294 321 -769 357 -769 25 0 10 45 -71
215 -120 251 -190 441 -259 701 -36 133 -52 214 -41 202 4 -4 31 -84 60 -178
47 -157 134 -393 209 -574 64 -153 237 -476 296 -554 76 -101 130 -138 264
-181 125 -40 99 -46 -46 -11 -106 25 -293 95 -398 148 -179 90 -432 303 -595
502 -75 93 -247 333 -309 432 -174 281 -413 855 -502 1208 -33 130 -149 688
-149 717 0 14 6 16 30 12 28 -6 30 -4 30 22 0 16 -5 45 -10 64 -10 35 -59 401
-85 640 -17 154 -32 406 -45 785 -6 160 -12 302 -15 318 -4 24 -2 27 25 27 16
0 32 -5 35 -10z m9295 -154 c41 -8 102 -18 135 -23 54 -7 60 -11 63 -33 4 -31
-80 -425 -114 -539 -27 -89 -51 -144 -98 -223 -40 -69 -25 -86 39 -42 l37 25
-19 -33 c-23 -40 -56 -58 -105 -58 -71 0 -124 34 -158 101 -20 38 -70 228 -90
339 -7 36 -18 85 -25 110 -8 25 -19 86 -25 135 -6 50 -18 125 -27 168 -14 68
-14 80 -2 89 20 14 299 3 389 -16z m-6710 -6 c11 -7 7 -10 -17 -10 -18 0 -33
5 -33 10 0 13 30 13 50 0z m-1275 -282 c18 -565 83 -1348 140 -1693 8 -49 29
-178 46 -285 16 -107 38 -226 49 -265 10 -38 33 -135 50 -215 18 -80 48 -206
67 -280 188 -739 332 -1113 558 -1455 51 -77 91 -142 89 -144 -8 -8 -105 93
-143 149 -54 79 -223 419 -275 552 -66 172 -203 615 -236 768 -7 30 -27 109
-46 175 -49 177 -107 449 -154 720 -47 274 -127 937 -141 1160 -5 83 -13 206
-19 275 -13 164 -25 734 -16 749 18 29 24 -13 31 -211z m146 -304 c22 -570 37
-803 58 -880 6 -21 24 -145 41 -274 34 -258 53 -381 106 -660 55 -292 77 -385
235 -975 114 -426 251 -757 457 -1108 41 -70 72 -131 68 -134 -11 -12 -115
109 -171 199 -87 140 -220 426 -305 657 -45 122 -244 880 -314 1191 -45 205
-102 574 -141 923 -13 119 -28 225 -33 235 -5 9 -12 82 -15 162 -3 80 -10 201
-16 270 -6 69 -15 277 -21 462 -10 303 -8 394 7 421 19 32 27 -62 44 -489z
m143 424 c3 -35 8 -187 11 -338 10 -469 57 -1031 131 -1560 51 -372 88 -549
194 -955 28 -104 57 -215 65 -245 12 -47 76 -279 104 -375 22 -77 117 -333
167 -450 92 -214 226 -460 301 -549 13 -16 22 -30 19 -33 -10 -11 -86 57 -141
127 -115 145 -190 285 -294 550 -30 74 -62 157 -73 183 -48 119 -127 392 -198
677 -17 69 -47 183 -66 253 -39 141 -131 613 -163 832 -27 187 -58 468 -71
640 -6 77 -12 149 -15 161 -16 72 -45 631 -45 865 l0 268 28 4 c15 2 30 5 34
6 3 0 9 -27 12 -61z m160 -185 c28 -965 110 -1743 252 -2388 46 -210 160 -660
219 -866 92 -321 320 -858 415 -976 23 -29 37 -53 32 -53 -24 0 -128 110 -186
199 -104 156 -258 512 -321 742 -15 52 -38 132 -52 179 -68 226 -185 691 -232
920 -67 330 -106 632 -171 1325 -17 179 -29 451 -36 809 l-7 336 40 0 40 0 7
-227z m5520 190 c9 -56 7 -216 -3 -231 -14 -23 -21 24 -21 151 0 115 11 154
24 80z m-5380 -25 c3 -29 8 -161 10 -293 11 -477 42 -910 101 -1405 52 -430
99 -700 186 -1060 22 -91 49 -201 59 -245 45 -197 133 -521 174 -640 57 -166
147 -379 232 -548 74 -146 84 -163 162 -260 30 -37 52 -70 49 -73 -25 -26
-220 174 -299 306 -123 207 -274 617 -358 975 -29 121 -79 330 -112 465 -146
603 -246 1375 -268 2080 -10 309 -12 697 -4 728 5 16 14 22 34 22 27 0 29 -3
34 -52z m301 27 c105 -8 218 -15 253 -15 l62 0 0 -412 c1 -540 15 -1082 35
-1288 47 -488 97 -856 170 -1235 55 -284 55 -285 65 -285 11 0 5 39 -37 240
-101 484 -170 1089 -193 1695 -10 265 -11 1090 -1 1200 l6 70 60 0 60 0 0 -85
c0 -47 -4 -292 -9 -545 -9 -472 -3 -708 30 -1120 29 -370 94 -914 134 -1113
58 -294 112 -540 122 -562 24 -50 20 13 -7 126 -59 243 -141 742 -179 1084
-55 485 -61 635 -61 1437 0 419 3 764 7 768 4 4 29 4 55 0 l49 -6 -4 -497 c-6
-719 8 -1050 68 -1640 43 -411 77 -646 143 -987 20 -99 37 -193 39 -209 4 -37
28 -48 28 -13 0 14 -11 78 -24 143 -43 208 -97 534 -116 694 -11 85 -28 229
-39 320 -21 174 -43 467 -62 816 -7 129 -10 433 -8 779 4 552 5 567 24 582 17
13 45 14 180 9 141 -6 1466 -38 1505 -37 245 9 983 21 988 16 12 -12 7 -1752
-7 -2055 -16 -377 -40 -785 -51 -890 -19 -181 -22 -267 -11 -274 7 -5 11 2 11
16 0 13 7 84 15 158 8 74 26 322 40 550 13 228 27 442 31 475 4 33 9 503 13
1045 l6 985 37 3 c30 3 37 -1 44 -20 11 -35 7 -1485 -5 -1813 -13 -324 -34
-685 -56 -940 -34 -389 -55 -617 -70 -730 -15 -118 -19 -203 -10 -194 2 3 13
68 24 144 68 462 104 863 141 1550 18 339 29 1265 20 1640 -10 379 -12 365 46
365 l31 0 7 -77 c23 -282 -9 -2098 -44 -2443 -6 -52 -17 -205 -26 -340 -25
-392 -62 -707 -135 -1139 -26 -154 -29 -195 -15 -180 8 8 77 357 96 484 43
297 94 801 110 1091 5 98 14 226 19 284 26 286 36 672 36 1477 l0 843 28 6
c17 3 34 1 40 -5 17 -17 26 -809 15 -1370 -10 -573 -39 -1151 -74 -1506 -64
-643 -108 -965 -179 -1315 -23 -111 -25 -143 -10 -128 19 19 106 454 139 693
124 905 166 1634 166 2907 l0 728 58 1 c31 0 162 6 291 12 193 10 234 10 239
-1 8 -23 -6 -1295 -17 -1487 -28 -489 -64 -911 -82 -979 -6 -21 -12 -55 -14
-75 -6 -60 -45 -349 -61 -456 -14 -98 -41 -240 -70 -379 -8 -38 -14 -80 -14
-94 0 -24 -26 -137 -116 -510 -35 -149 -42 -194 -24 -176 19 19 60 179 115
452 31 152 63 302 70 332 8 30 21 102 30 160 8 58 29 186 45 285 110 684 156
1240 167 2023 6 481 7 502 25 502 29 0 33 28 8 55 -23 25 -26 41 -34 253 l-5
113 52 -3 52 -3 -2 -420 c-3 -411 -24 -1081 -43 -1320 -48 -609 -71 -836 -121
-1180 -70 -482 -195 -1052 -300 -1375 -72 -220 -88 -257 -107 -265 -29 -11
-279 -33 -527 -47 -154 -8 -486 -13 -930 -13 -701 0 -825 5 -1318 48 -76 7
-142 10 -148 6 -26 -16 53 -45 151 -55 78 -8 114 -23 55 -24 -22 0 -80 5 -130
10 -74 8 -106 18 -180 54 -103 51 -204 124 -263 191 -41 47 -175 254 -188 290
-3 11 -24 59 -46 107 -98 217 -221 613 -308 993 -18 77 -48 203 -66 280 -83
341 -156 894 -226 1695 -14 160 -18 987 -5 1033 4 15 13 27 20 27 6 0 98 -7
202 -15z m4835 -253 c0 -504 -31 -1307 -60 -1587 -6 -49 -17 -169 -25 -265
-54 -616 -151 -1208 -316 -1926 -46 -200 -161 -500 -196 -512 -19 -5 -16 26 8
104 27 87 56 144 73 144 9 0 12 16 12 53 -1 32 15 112 41 207 23 85 53 218 68
295 14 77 39 203 55 280 33 160 121 717 144 910 20 168 43 413 51 540 3 55 10
150 15 210 30 351 60 1137 60 1588 0 110 4 196 10 208 6 11 21 19 35 19 l25 0
0 -268z m124 217 c12 -87 -16 -1051 -39 -1379 -8 -113 -20 -270 -25 -350 -6
-80 -18 -213 -27 -296 -9 -83 -13 -159 -9 -169 9 -24 26 -18 215 70 89 42 190
82 226 90 76 16 86 21 78 42 -4 11 -2 14 8 11 10 -4 14 -23 13 -76 0 -62 -4
-75 -25 -98 -57 -61 -175 -135 -363 -229 l-201 -100 -27 -145 c-14 -80 -38
-221 -53 -315 -51 -327 -117 -672 -136 -707 -21 -37 -24 3 -5 60 9 26 20 81
26 122 6 41 33 208 59 370 74 441 137 968 161 1335 5 88 15 228 20 310 16 231
30 671 31 975 0 280 10 498 23 518 4 7 15 12 25 12 15 0 20 -11 25 -51z m2552
-156 c-7 -214 -11 -273 -47 -643 -23 -238 -108 -856 -140 -1020 -20 -105 -55
-237 -149 -565 -41 -142 -170 -455 -272 -659 -197 -395 -457 -759 -753 -1052
-202 -201 -418 -337 -630 -399 -104 -30 -323 -67 -369 -63 -27 3 -20 7 44 28
89 29 421 194 476 237 22 16 71 52 109 78 87 60 397 370 448 447 21 31 42 60
47 63 13 8 107 144 183 267 82 131 266 487 342 663 159 364 304 916 344 1305
6 58 15 128 21 155 5 28 17 122 26 210 27 268 50 405 79 471 35 78 112 295
130 364 13 51 76 247 96 298 5 12 12 22 15 22 4 0 4 -93 0 -207z m-2793 112
c7 -76 -18 -946 -29 -990 -5 -22 -21 -335 -33 -670 -4 -115 -11 -217 -14 -225
-3 -8 -11 -94 -17 -190 -6 -96 -16 -206 -21 -245 -4 -38 -22 -180 -39 -315
-32 -247 -122 -815 -141 -880 -5 -19 -18 -80 -29 -135 -34 -179 -80 -389 -97
-443 -10 -31 -26 -58 -40 -67 -19 -13 -21 -19 -13 -35 7 -14 6 -32 -6 -67 -27
-79 -73 -176 -96 -200 -26 -28 -48 -30 -48 -5 0 16 92 308 178 567 53 158 128
522 166 805 14 102 30 212 36 245 30 174 85 652 115 1005 38 449 46 681 48
1333 l2 598 35 -3 35 -3 8 -80z m-118 -462 c-9 -756 -20 -1057 -55 -1453 -40
-461 -73 -719 -155 -1240 -44 -280 -62 -370 -129 -635 -65 -263 -181 -606
-230 -680 -18 -27 -66 -35 -66 -12 0 8 30 101 66 208 94 278 203 734 264 1104
17 105 37 228 45 275 7 47 19 132 25 190 6 58 17 143 25 190 29 174 72 673
101 1175 15 262 25 763 24 1218 l0 197 46 0 45 0 -6 -537z m2738 307 c-10 -30
-24 -56 -32 -58 -17 -6 -9 32 21 98 27 59 35 31 11 -40z m-2176 8 c-3 -7 -5
-2 -5 12 0 14 2 19 5 13 2 -7 2 -19 0 -25z m0 -50 c-3 -8 -6 -5 -6 6 -1 11 2
17 5 13 3 -3 4 -12 1 -19z m-92 -95 c-3 -14 -9 -22 -13 -19 -8 8 -3 77 6 91
10 14 15 -42 7 -72z m2230 27 c-3 -5 -12 -10 -18 -10 -7 0 -6 4 3 10 19 12 23
12 15 0z m-33 -92 c-7 -7 -12 -8 -12 -2 0 14 12 26 19 19 2 -3 -1 -11 -7 -17z
m-52 -138 c-6 -12 -14 -19 -17 -16 -4 3 0 18 8 32 7 14 15 21 17 15 2 -5 -2
-20 -8 -31z m-540 -49 c0 -23 -16 -36 -25 -21 -9 14 1 40 15 40 5 0 10 -9 10
-19z m508 -13 c-2 -6 -10 -14 -16 -16 -7 -2 -10 2 -6 12 7 18 28 22 22 4z
m-388 -88 c27 -66 -14 -480 -91 -925 -65 -371 -148 -673 -269 -977 -45 -111
-85 -207 -89 -213 -5 -5 -60 -111 -123 -235 -170 -335 -369 -635 -543 -817
-100 -106 -165 -164 -165 -147 0 3 35 43 79 88 43 44 116 131 162 191 45 61
122 162 170 225 71 93 110 161 202 345 277 559 340 725 443 1183 26 114 53
225 61 247 8 22 23 110 33 195 34 296 81 675 90 731 6 30 10 74 10 97 0 49 12
54 30 12z m-144 -164 c-7 -129 -15 -176 -31 -176 -12 1 -7 253 6 287 5 15 14
21 20 17 9 -5 10 -41 5 -128z m-7831 94 c11 -17 -5 -32 -21 -19 -8 6 -14 15
-14 20 0 12 27 11 35 -1z m7710 -20 c12 -38 -39 -410 -56 -410 -5 0 -9 4 -9
10 0 23 30 348 36 383 6 41 19 48 29 17z m-8775 1 c0 -6 -4 -13 -10 -16 -5 -3
-10 1 -10 9 0 9 5 16 10 16 6 0 10 -4 10 -9z m-62 -13 c-3 -7 -11 -13 -18 -13
-7 0 -15 6 -17 13 -3 7 4 12 17 12 13 0 20 -5 18 -12z m826 -6 c2 -4 1 -14 -4
-21 -10 -17 -31 -5 -23 14 6 16 19 20 27 7z m386 -12 c0 -5 -7 -10 -16 -10 -8
0 -12 5 -9 10 3 6 10 10 16 10 5 0 9 -4 9 -10z m8027 -7 c9 -22 -9 -185 -57
-519 -58 -413 -66 -451 -169 -835 -117 -440 -478 -1182 -726 -1494 -125 -158
-207 -244 -296 -311 -53 -40 -99 -71 -101 -68 -3 2 66 75 152 162 127 127 173
181 240 282 46 69 96 142 113 163 68 87 428 798 447 883 6 24 15 52 20 62 17
29 80 224 96 292 7 36 18 75 24 88 17 39 147 641 151 702 1 8 7 42 14 75 7 33
16 105 19 160 8 113 35 356 43 367 8 13 23 9 30 -9z m259 -20 c-3 -16 -10 -82
-16 -148 -6 -66 -13 -127 -15 -135 -2 -8 -20 -125 -40 -260 -38 -261 -38 -260
-85 -505 -94 -481 -288 -980 -562 -1444 -185 -313 -311 -477 -547 -711 -171
-170 -310 -269 -538 -384 -108 -54 -323 -112 -323 -87 0 6 8 11 19 11 18 0
121 43 186 77 224 117 401 229 530 333 75 62 246 243 334 355 144 184 452 734
576 1030 92 218 105 255 160 460 8 33 27 101 41 150 14 50 36 144 49 210 13
66 29 134 35 150 11 28 40 234 75 540 14 118 39 287 50 341 4 20 36 42 63 43
10 1 12 -7 8 -26z m-133 -17 c12 -31 -82 -693 -144 -1011 -55 -285 -157 -611
-274 -878 -62 -140 -224 -461 -287 -567 -147 -247 -347 -519 -481 -658 -73
-75 -216 -179 -342 -250 -141 -79 -427 -194 -442 -178 -3 3 3 9 13 12 73 27
380 183 479 244 102 63 142 97 266 220 94 94 159 168 184 210 22 36 66 103
100 150 33 47 84 126 113 175 30 50 58 97 63 105 5 8 17 31 25 50 9 19 49 94
90 166 41 73 74 136 74 140 0 4 23 57 51 118 94 205 165 391 205 539 13 49 35
124 49 168 13 43 34 127 46 186 11 59 29 142 39 183 10 41 21 100 25 130 3 30
17 118 30 195 13 77 29 194 35 260 14 156 30 266 41 288 12 20 35 22 42 3z
m-8533 -36 c0 -5 -5 -10 -11 -10 -5 0 -7 5 -4 10 3 6 8 10 11 10 2 0 4 -4 4
-10z m8090 -286 c-36 -368 -114 -782 -219 -1169 -40 -148 -93 -276 -278 -665
-308 -648 -730 -1144 -1126 -1325 -77 -35 -227 -85 -254 -85 -20 0 -14 44 20
130 134 343 175 472 228 705 17 72 36 150 44 175 7 25 16 74 20 110 13 131 37
285 47 295 14 14 3 -146 -17 -250 -8 -44 -15 -108 -15 -143 0 -63 -41 -268
-100 -501 -35 -139 -34 -131 -16 -131 22 0 100 184 165 390 75 238 90 280 102
280 5 0 9 -6 9 -13 0 -19 -70 -272 -125 -451 -47 -157 -51 -176 -35 -176 36 0
230 446 295 675 9 33 24 68 32 78 16 17 43 23 43 10 0 -4 -28 -91 -61 -193
-67 -201 -149 -415 -180 -469 -25 -43 -7 -62 28 -30 24 23 144 261 163 324 7
22 32 87 55 145 24 58 53 139 66 180 20 62 24 70 27 45 2 -20 11 -34 25 -40
15 -7 21 -18 20 -36 -2 -33 -89 -241 -169 -404 -65 -132 -73 -155 -54 -155 52
0 134 129 359 565 29 55 249 602 304 756 73 200 113 341 198 694 84 350 93
380 110 370 18 -11 60 5 85 32 19 20 27 24 36 15 16 -16 63 -15 77 1 15 19 39
128 51 241 13 111 25 155 41 139 7 -7 6 -45 -1 -119z m-225 106 c3 -5 1 -10
-4 -10 -6 0 -11 5 -11 10 0 6 2 10 4 10 3 0 8 -4 11 -10z m80 -232 c-12 -60
-27 -98 -35 -93 -6 3 -5 15 0 28 5 12 11 39 15 60 3 20 11 37 16 37 7 0 8 -13
4 -32z m-8695 -181 c22 -11 27 -25 48 -132 56 -289 126 -600 164 -725 145
-480 345 -904 631 -1340 183 -280 360 -461 664 -680 57 -40 101 -75 99 -77 -5
-6 -106 48 -188 100 -135 85 -437 342 -516 438 -94 117 -220 286 -254 341 -21
34 -44 68 -52 77 -23 26 -250 488 -310 630 -182 431 -297 842 -382 1360 l-5
33 38 -7 c21 -3 49 -12 63 -18z m8410 -81 c0 -3 -4 -8 -10 -11 -5 -3 -10 -1
-10 4 0 6 5 11 10 11 6 0 10 -2 10 -4z m-40 -166 c0 -5 -5 -10 -11 -10 -5 0
-7 5 -4 10 3 6 8 10 11 10 2 0 4 -4 4 -10z m-30 -130 c0 -5 -4 -10 -10 -10 -5
0 -10 5 -10 10 0 6 5 10 10 10 6 0 10 -4 10 -10z m-7442 -308 c5 -30 6 -50 1
-45 -9 9 -25 111 -16 103 3 -3 10 -29 15 -58z m177 -157 c20 -93 59 -262 86
-374 27 -112 49 -218 49 -235 -1 -45 -10 -22 -58 139 -77 265 -92 320 -107
415 -9 52 -23 114 -31 138 -8 23 -14 62 -14 85 0 41 0 41 19 22 14 -14 31 -71
56 -190z m7205 196 c0 -6 -4 -13 -10 -16 -5 -3 -10 1 -10 9 0 9 5 16 10 16 6
0 10 -4 10 -9z m-7082 -233 c7 -29 19 -84 27 -122 8 -37 29 -99 45 -136 17
-38 41 -113 54 -167 128 -526 246 -879 404 -1203 39 -80 69 -147 66 -149 -2
-2 -5 -2 -7 0 -1 2 -18 24 -37 49 -31 40 -122 213 -178 340 -29 67 -122 317
-122 329 0 6 -25 88 -55 182 -31 93 -62 196 -70 227 -8 31 -30 111 -50 177
-19 66 -44 167 -55 225 -40 206 -57 405 -22 248z m-250 -12 c3 -12 -1 -17 -10
-14 -7 3 -15 13 -16 22 -3 12 1 17 10 14 7 -3 15 -13 16 -22z m469 -13 c-3
-10 -5 -4 -5 12 0 17 2 24 5 18 2 -7 2 -21 0 -30z m-427 -128 c0 -8 -2 -15 -4
-15 -2 0 -6 7 -10 15 -3 8 -1 15 4 15 6 0 10 -7 10 -15z m337 -7 c-3 -8 -6 -5
-6 6 -1 11 2 17 5 13 3 -3 4 -12 1 -19z m120 0 c-3 -8 -6 -5 -6 6 -1 11 2 17
5 13 3 -3 4 -12 1 -19z m-83 -102 c13 -30 33 -59 44 -65 25 -13 26 -15 106
-326 123 -474 189 -650 401 -1076 80 -160 145 -295 143 -299 -5 -13 -38 18
-92 85 -47 57 -222 393 -258 495 -9 25 -42 110 -73 190 -65 166 -103 293 -216
715 -44 165 -82 308 -85 318 -11 37 7 14 30 -37z m119 -55 c-7 -10 -15 10 -19
51 l-4 43 14 -45 c7 -25 11 -47 9 -49z m-466 7 c-3 -8 -6 -5 -6 6 -1 11 2 17
5 13 3 -3 4 -12 1 -19z m547 -74 c9 -8 18 -25 21 -37 68 -290 178 -669 242
-837 84 -218 198 -463 313 -670 87 -157 77 -184 -23 -65 -42 50 -84 122 -151
255 -168 337 -234 505 -336 860 -100 350 -132 481 -119 496 15 18 34 18 53 -2z
m-464 -171 c23 -89 23 -88 12 -78 -11 11 -42 102 -42 122 0 29 18 2 30 -44z
m6750 -85 c-33 -93 -79 -193 -80 -171 -1 42 94 283 106 270 3 -3 -9 -47 -26
-99z m-140 -34 c0 -21 -67 -87 -80 -79 -13 8 13 59 42 79 28 20 38 20 38 0z
m-680 -95 c0 -5 -4 -9 -10 -9 -5 0 -10 7 -10 16 0 8 5 12 10 9 6 -3 10 -10 10
-16z m431 -92 c-8 -8 -11 -5 -11 9 0 27 14 41 18 19 2 -9 -1 -22 -7 -28z
m-475 -204 c-25 -180 -38 -233 -55 -233 -12 0 -5 60 24 195 13 61 27 133 30
160 8 60 16 85 22 69 2 -7 -7 -92 -21 -191z m135 150 c-9 -16 -10 -15 -11 8 0
14 3 29 8 33 12 12 14 -22 3 -41z m-21 -159 c0 -8 -5 -12 -10 -9 -6 4 -8 11
-5 16 9 14 15 11 15 -7z m5 -43 c3 -5 -8 -63 -25 -128 -16 -65 -39 -164 -50
-220 -20 -102 -59 -218 -140 -423 -23 -58 -46 -119 -51 -137 -11 -36 -44 -81
-54 -72 -3 4 8 42 26 85 99 249 180 508 219 709 35 174 53 220 75 186z m-184
-264 c-8 -8 -11 -2 -11 19 0 40 14 54 18 19 2 -15 -1 -32 -7 -38z m-115 -1
c-9 -56 -26 -70 -26 -21 0 37 17 81 27 71 3 -3 2 -25 -1 -50z m-39 -178 c-9
-35 -26 -106 -38 -158 -41 -181 -130 -410 -159 -410 -18 0 -11 30 41 168 69
187 65 177 88 269 35 139 64 213 79 199 2 -3 -3 -33 -11 -68z m113 35 c0 -37
-126 -435 -170 -537 -18 -42 -43 -66 -56 -54 -2 3 24 81 59 174 51 136 104
287 142 412 5 13 25 17 25 5z m802 -185 c-7 -7 -12 -8 -12 -2 0 14 12 26 19
19 2 -3 -1 -11 -7 -17z m-5962 -413 c36 -19 59 -34 52 -35 -14 0 -132 58 -132
65 0 10 16 4 80 -30z m5535 -45 c-3 -5 -13 -10 -21 -10 -8 0 -12 5 -9 10 3 6
13 10 21 10 8 0 12 -4 9 -10z m-5365 -26 c14 -7 18 -13 10 -13 -8 0 -31 9 -50
20 -26 15 -29 18 -10 13 14 -4 36 -13 50 -20z m90 -24 c12 -8 11 -10 -7 -10
-13 0 -23 5 -23 10 0 13 11 13 30 0z m175 -40 c61 -11 214 -31 340 -45 127
-13 275 -31 330 -39 136 -20 307 -34 505 -41 91 -3 251 -12 355 -20 286 -21
627 -32 948 -31 201 2 282 -1 265 -8 -34 -15 -932 -13 -1163 2 -582 38 -1294
108 -1505 148 -137 26 -220 46 -220 54 0 5 8 6 18 4 9 -2 67 -13 127 -24z
m1590 -21 c88 -6 162 -13 165 -16 6 -7 -299 4 -382 13 -33 4 -55 11 -52 16 4
6 29 7 58 4 28 -3 123 -11 211 -17z m335 -29 c0 -5 -7 -7 -15 -4 -8 4 -15 8
-15 10 0 2 7 4 15 4 8 0 15 -4 15 -10z m60 0 c0 -5 -4 -10 -10 -10 -5 0 -10 5
-10 10 0 6 5 10 10 10 6 0 10 -4 10 -10z m1008 -127 c-10 -2 -28 -2 -40 0 -13
2 -5 4 17 4 22 1 32 -1 23 -4z"/>
<path d="M12114 9396 c-77 -77 -154 -187 -154 -217 0 -10 11 -26 24 -34 22
-14 28 -14 79 5 103 39 310 175 344 227 14 21 14 26 -1 48 -20 30 -71 45 -156
45 l-64 0 -72 -74z m185 -17 c18 -6 31 -18 31 -27 0 -26 -230 -165 -246 -149
-9 8 78 129 116 161 35 29 52 31 99 15z"/>
<path d="M3658 6307 c-5 -10 -8 -60 -7 -110 1 -76 2 -86 10 -59 11 39 8 196
-3 169z"/>
<path d="M3777 6235 c-10 -100 -9 -277 2 -271 12 8 23 263 13 306 -8 32 -9 30
-15 -35z"/>
<path d="M8535 6055 c-7 -83 -2 -111 16 -100 12 8 12 172 0 179 -5 3 -12 -32
-16 -79z"/>
<path d="M8675 6130 c-3 -5 -9 -74 -12 -152 -4 -109 -3 -140 6 -132 8 7 14 64
18 152 6 133 3 157 -12 132z"/>
<path d="M8801 5998 c2 -107 3 -122 9 -78 12 83 12 210 0 210 -6 0 -9 -50 -9
-132z"/>
<path d="M3649 6035 c-12 -18 -22 -275 -11 -275 6 0 13 37 17 83 7 91 4 208
-6 192z"/>
<path d="M1068 5937 c-7 -23 4 -137 13 -131 12 7 12 131 0 138 -5 3 -11 0 -13
-7z"/>
<path d="M3773 5860 c0 -41 2 -58 4 -37 2 20 2 54 0 75 -2 20 -4 3 -4 -38z"/>
<path d="M827 5836 c-15 -104 -3 -365 14 -321 10 25 10 311 0 345 -6 21 -8 18
-14 -24z"/>
<path d="M7925 5810 c-5 -8 1 -20 17 -32 l26 -18 -32 -35 c-45 -48 -72 -47
-80 4 -3 22 -10 43 -16 46 -17 10 -47 -13 -59 -46 -28 -82 81 -175 176 -150
92 25 134 137 76 201 -31 34 -95 51 -108 30z"/>
<path d="M8776 5718 c-4 -51 -10 -102 -13 -113 -4 -16 -3 -18 7 -8 13 12 29
213 18 213 -3 0 -8 -42 -12 -92z"/>
<path d="M8287 5747 c-71 -43 -95 -112 -62 -177 25 -49 130 -66 195 -31 38 20
80 82 80 119 1 94 -121 145 -213 89z m83 -59 c0 -4 -16 -20 -35 -35 -19 -15
-35 -37 -35 -48 -1 -19 -2 -19 -20 4 -27 32 -25 44 11 85 30 35 31 35 55 18
13 -9 24 -20 24 -24z m20 -98 c0 -5 -4 -10 -10 -10 -5 0 -10 5 -10 10 0 6 5
10 10 10 6 0 10 -4 10 -10z"/>
<path d="M3773 5720 c0 -25 2 -35 4 -22 2 12 2 32 0 45 -2 12 -4 2 -4 -23z"/>
<path d="M3637 5678 c-3 -12 -2 -29 3 -37 7 -12 9 -6 10 22 0 42 -5 48 -13 15z"/>
<path d="M8005 5446 c-137 -61 -95 -236 57 -236 44 0 53 4 92 43 23 24 46 56
50 71 8 32 -15 79 -54 107 -34 25 -107 33 -145 15z m105 -46 c34 -34 26 -55
-20 -56 -35 -1 -40 1 -40 21 0 56 25 70 60 35z"/>
<path d="M7330 4203 c0 -642 -5 -800 -41 -1263 -30 -404 -74 -767 -149 -1251
-23 -146 -24 -157 -11 -144 8 9 20 66 77 380 34 187 91 672 120 1010 31 368
41 1895 13 1895 -5 0 -9 -282 -9 -627z"/>
<path d="M7209 4168 c0 -359 -4 -756 -8 -883 -7 -216 -6 -245 3 -234 20 23 51
1668 32 1743 -22 87 -26 -13 -27 -626z"/>
<path d="M5573 4774 c-3 -9 0 -197 6 -418 7 -220 12 -432 11 -471 -1 -38 3
-164 9 -280 6 -115 11 -596 11 -1068 0 -682 3 -858 13 -855 6 3 16 31 20 64 5
32 6 529 3 1104 -4 960 -17 1505 -42 1843 -6 85 -18 115 -31 81z"/>
<path d="M5444 4713 c-8 -68 2 -952 11 -961 3 -4 10 0 15 8 11 16 14 968 4
994 -12 31 -23 15 -30 -41z"/>
<path d="M5320 3065 c0 -1815 7 -2618 23 -2589 14 25 2 4207 -12 4231 -7 12
-10 -502 -11 -1642z"/>
<path d="M5448 2028 c-3 -1693 -2 -1736 29 -1704 11 10 10 3300 0 3349 -4 20
-12 37 -17 37 -6 0 -11 -658 -12 -1682z"/>
<path d="M7178 2908 c-5 -72 -3 -87 7 -76 12 11 18 148 8 148 -6 0 -13 -32
-15 -72z"/>
<path d="M7156 2619 c-11 -35 -17 -111 -8 -105 12 7 27 104 18 113 -3 3 -8 0
-10 -8z"/>
<path d="M5606 1588 c-4 -40 -15 -260 -26 -488 -11 -228 -27 -496 -34 -595 -8
-99 -12 -182 -9 -185 10 -11 21 27 32 109 25 190 59 680 67 994 6 212 6 237
-9 237 -12 0 -17 -16 -21 -72z"/>
<path d="M3702 1558 c11 -73 28 -100 28 -45 0 33 -23 107 -33 107 -2 0 0 -28
5 -62z"/>
<path d="M6365 1521 c-3 -5 -1 -12 5 -16 5 -3 10 1 10 9 0 18 -6 21 -15 7z"/>
<path d="M7106 1494 c-4 -9 -4 -19 -1 -22 2 -3 7 3 11 12 4 9 4 19 1 22 -2 3
-7 -3 -11 -12z"/>
<path d="M5335 376 c-13 -30 -11 -98 2 -103 18 -6 27 41 15 84 -8 32 -10 35
-17 19z"/>
</g>
</svg>
